<svg xmlns="http://www.w3.org/2000/svg" viewBox="0 0 64 32">
  <defs>
    <linearGradient id="ixieraFuturistic" x1="0" y1="0" x2="1" y2="1">
      <stop offset="0%" stop-color="#ffffff"/>
      <stop offset="90%" stop-color="#000000"/>
    </linearGradient>
  </defs>
  <path fill="url(#ixieraFuturistic)" d="M32 3c-4 3-7 3-11 0-2 3-6 6-10 8-2 1-6 1-7 3 1 2 3 2 4 3 1 1 1 3-2 5 3 1 7 2 10 1 1 3 4 6 7 8 0-3 1-6 3-8 2 0 3 0 4 0s2 0 4 0c2 2 3 5 3 8 3-2 6-5 7-8 3 1 7 0 10-1-3-2-3-4-2-5 1-1 3-1 4-3-1-2-5-2-7-3-4-2-8-5-10-8-4 3-7 3-11 0z"/>
  <path fill="#ffffff22" d="M10 20c3-2 6-3 10-3s7 1 10 3 7 3 10 3 7-1 10-3c-3 4-6 6-10 7s-7 0-10-1-7-2-10-1-7-3-10-5z"/>
</svg>